<?xml version="1.0" encoding="UTF-8" standalone="no"?>
<!DOCTYPE svg PUBLIC "-//W3C//DTD SVG 1.1//EN" "http://www.w3.org/Graphics/SVG/1.1/DTD/svg11.dtd">
<svg version="1.1" xmlns="http://www.w3.org/2000/svg" xmlns:xlink="http://www.w3.org/1999/xlink" preserveAspectRatio="xMidYMid meet" viewBox="0 0 640 640" width="640" height="640"><defs><path d="M92.66 0L186.94 94.29L94.27 186.94L0 92.65L92.66 0Z" id="a1a7Ji6QXp"></path><path d="M186.13 0L280.4 94.29L187.74 186.94L93.47 92.65L186.13 0Z" id="a1BZXGTGgI"></path><path d="M279.6 0L373.87 94.29L281.21 186.94L186.94 92.65L279.6 0Z" id="f3NoIoWaNK"></path><path d="M373.07 0L467.34 94.29L374.68 186.94L280.4 92.65L373.07 0Z" id="b1AkiUmrO"></path><path d="M466.53 0L560.81 94.29L468.15 186.94L373.87 92.65L466.53 0Z" id="d3tuIEzUo3"></path><path d="M545.73 0L640 94.29L547.34 186.94L453.06 92.65L545.73 0Z" id="a1hcgLpxa"></path><path d="M639.19 0L733.47 94.29L640.81 186.94L546.53 92.65L639.19 0Z" id="d1ucUgOZso"></path><path d="M-0.81 0L93.47 94.29L0.81 186.94L-93.47 92.65L-0.81 0Z" id="aSgrcZl6T"></path><path d="M278.66 93L372.94 187.29L280.27 279.94L186 185.65L278.66 93Z" id="b8iCuFni"></path><path d="M372.13 93L466.4 187.29L373.74 279.94L279.47 185.65L372.13 93Z" id="b4kvlioip3"></path><path d="M465.6 93L559.87 187.29L467.21 279.94L372.94 185.65L465.6 93Z" id="b2uZw3RtD"></path><path d="M559.07 93L653.34 187.29L560.68 279.94L466.4 185.65L559.07 93Z" id="fqDJbXzhR"></path><path d="M652.53 93L746.81 187.29L654.15 279.94L559.87 185.65L652.53 93Z" id="d1nR6URW4o"></path><path d="M185.19 93L279.47 187.29L186.81 279.94L92.53 185.65L185.19 93Z" id="dSeCmGa"></path><path d="M552.66 180L646.94 274.29L554.27 366.94L460 272.65L552.66 180Z" id="b4dOEgbjSu"></path><path d="M646.13 180L740.4 274.29L647.74 366.94L553.47 272.65L646.13 180Z" id="cgFlFUvo"></path><path d="M459.19 180L553.47 274.29L460.81 366.94L366.53 272.65L459.19 180Z" id="ehoygwV2l"></path><path d="M645.19 273L739.47 367.29L646.81 459.94L552.53 365.65L645.19 273Z" id="i8TgFpNme"></path><path d="M-27.34 -120L66.94 -25.71L-25.73 66.94L-120 -27.35L-27.34 -120Z" id="a2SdegAavO"></path><path d="M66.13 -120L160.4 -25.71L67.74 66.94L-26.53 -27.35L66.13 -120Z" id="aEhCBrsR"></path><path d="M159.6 -120L253.87 -25.71L161.21 66.94L66.94 -27.35L159.6 -120Z" id="d6LkOaMLq"></path><path d="M253.07 -120L347.34 -25.71L254.68 66.94L160.4 -27.35L253.07 -120Z" id="a2hk89d92T"></path><path d="M346.53 -120L440.81 -25.71L348.15 66.94L253.87 -27.35L346.53 -120Z" id="b2jhkhs3YZ"></path><path d="M425.73 -120L520 -25.71L427.34 66.94L333.06 -27.35L425.73 -120Z" id="a1RVDpRqPW"></path><path d="M519.19 -120L613.47 -25.71L520.81 66.94L426.53 -27.35L519.19 -120Z" id="bONDrmuou"></path><path d="M158.66 -27L252.94 67.29L160.27 159.94L66 65.65L158.66 -27Z" id="abmOp1RsX"></path><path d="M252.13 -27L346.4 67.29L253.74 159.94L159.47 65.65L252.13 -27Z" id="aVFOKCPQ7"></path><path d="M345.6 -27L439.87 67.29L347.21 159.94L252.94 65.65L345.6 -27Z" id="g27lOIb2v"></path><path d="M439.07 -27L533.34 67.29L440.68 159.94L346.4 65.65L439.07 -27Z" id="c2OTBMsz8d"></path><path d="M532.53 -27L626.81 67.29L534.15 159.94L439.87 65.65L532.53 -27Z" id="a6sL9T2R1Y"></path><path d="M611.73 -27L706 67.29L613.34 159.94L519.06 65.65L611.73 -27Z" id="a31MneiXoZ"></path><path d="M705.19 -27L799.47 67.29L706.81 159.94L612.53 65.65L705.19 -27Z" id="aFzbsV9Xy"></path><path d="M65.19 -27L159.47 67.29L66.81 159.94L-27.47 65.65L65.19 -27Z" id="lAphmPoh"></path></defs><g><g><g><use xlink:href="#a1a7Ji6QXp" opacity="1" fill="#dd6561" fill-opacity="1"></use><g><use xlink:href="#a1a7Ji6QXp" opacity="1" fill-opacity="0" stroke="#3b509c" stroke-width="0" stroke-opacity="1"></use></g></g><g><use xlink:href="#a1BZXGTGgI" opacity="1" fill="#dd6561" fill-opacity="1"></use><g><use xlink:href="#a1BZXGTGgI" opacity="1" fill-opacity="0" stroke="#3b509c" stroke-width="0" stroke-opacity="1"></use></g></g><g><use xlink:href="#f3NoIoWaNK" opacity="1" fill="#dd6561" fill-opacity="1"></use><g><use xlink:href="#f3NoIoWaNK" opacity="1" fill-opacity="0" stroke="#3b509c" stroke-width="0" stroke-opacity="1"></use></g></g><g><use xlink:href="#b1AkiUmrO" opacity="1" fill="#dd6561" fill-opacity="1"></use><g><use xlink:href="#b1AkiUmrO" opacity="1" fill-opacity="0" stroke="#3b509c" stroke-width="0" stroke-opacity="1"></use></g></g><g><use xlink:href="#d3tuIEzUo3" opacity="1" fill="#dd6561" fill-opacity="1"></use><g><use xlink:href="#d3tuIEzUo3" opacity="1" fill-opacity="0" stroke="#3b509c" stroke-width="0" stroke-opacity="1"></use></g></g><g><use xlink:href="#a1hcgLpxa" opacity="1" fill="#dd6561" fill-opacity="1"></use><g><use xlink:href="#a1hcgLpxa" opacity="1" fill-opacity="0" stroke="#3b509c" stroke-width="0" stroke-opacity="1"></use></g></g><g><use xlink:href="#d1ucUgOZso" opacity="1" fill="#dd6561" fill-opacity="1"></use><g><use xlink:href="#d1ucUgOZso" opacity="1" fill-opacity="0" stroke="#3b509c" stroke-width="0" stroke-opacity="1"></use></g></g><g><use xlink:href="#aSgrcZl6T" opacity="1" fill="#dd6561" fill-opacity="1"></use><g><use xlink:href="#aSgrcZl6T" opacity="1" fill-opacity="0" stroke="#3b509c" stroke-width="0" stroke-opacity="1"></use></g></g><g><use xlink:href="#b8iCuFni" opacity="1" fill="#dd6561" fill-opacity="1"></use><g><use xlink:href="#b8iCuFni" opacity="1" fill-opacity="0" stroke="#3b509c" stroke-width="0" stroke-opacity="1"></use></g></g><g><use xlink:href="#b4kvlioip3" opacity="1" fill="#dd6561" fill-opacity="1"></use><g><use xlink:href="#b4kvlioip3" opacity="1" fill-opacity="0" stroke="#3b509c" stroke-width="0" stroke-opacity="1"></use></g></g><g><use xlink:href="#b2uZw3RtD" opacity="1" fill="#dd6561" fill-opacity="1"></use><g><use xlink:href="#b2uZw3RtD" opacity="1" fill-opacity="0" stroke="#3b509c" stroke-width="0" stroke-opacity="1"></use></g></g><g><use xlink:href="#fqDJbXzhR" opacity="1" fill="#dd6561" fill-opacity="1"></use><g><use xlink:href="#fqDJbXzhR" opacity="1" fill-opacity="0" stroke="#3b509c" stroke-width="0" stroke-opacity="1"></use></g></g><g><use xlink:href="#d1nR6URW4o" opacity="1" fill="#dd6561" fill-opacity="1"></use><g><use xlink:href="#d1nR6URW4o" opacity="1" fill-opacity="0" stroke="#3b509c" stroke-width="0" stroke-opacity="1"></use></g></g><g><use xlink:href="#dSeCmGa" opacity="1" fill="#dd6561" fill-opacity="1"></use><g><use xlink:href="#dSeCmGa" opacity="1" fill-opacity="0" stroke="#3b509c" stroke-width="0" stroke-opacity="1"></use></g></g><g><use xlink:href="#b4dOEgbjSu" opacity="1" fill="#dd6561" fill-opacity="1"></use><g><use xlink:href="#b4dOEgbjSu" opacity="1" fill-opacity="0" stroke="#3b509c" stroke-width="0" stroke-opacity="1"></use></g></g><g><use xlink:href="#cgFlFUvo" opacity="1" fill="#dd6561" fill-opacity="1"></use><g><use xlink:href="#cgFlFUvo" opacity="1" fill-opacity="0" stroke="#3b509c" stroke-width="0" stroke-opacity="1"></use></g></g><g><use xlink:href="#ehoygwV2l" opacity="1" fill="#dd6561" fill-opacity="1"></use><g><use xlink:href="#ehoygwV2l" opacity="1" fill-opacity="0" stroke="#3b509c" stroke-width="0" stroke-opacity="1"></use></g></g><g><use xlink:href="#i8TgFpNme" opacity="1" fill="#dd6561" fill-opacity="1"></use><g><use xlink:href="#i8TgFpNme" opacity="1" fill-opacity="0" stroke="#3b509c" stroke-width="0" stroke-opacity="1"></use></g></g><g><use xlink:href="#a2SdegAavO" opacity="1" fill="#dd6561" fill-opacity="1"></use><g><use xlink:href="#a2SdegAavO" opacity="1" fill-opacity="0" stroke="#3b509c" stroke-width="0" stroke-opacity="1"></use></g></g><g><use xlink:href="#aEhCBrsR" opacity="1" fill="#dd6561" fill-opacity="1"></use><g><use xlink:href="#aEhCBrsR" opacity="1" fill-opacity="0" stroke="#3b509c" stroke-width="0" stroke-opacity="1"></use></g></g><g><use xlink:href="#d6LkOaMLq" opacity="1" fill="#dd6561" fill-opacity="1"></use><g><use xlink:href="#d6LkOaMLq" opacity="1" fill-opacity="0" stroke="#3b509c" stroke-width="0" stroke-opacity="1"></use></g></g><g><use xlink:href="#a2hk89d92T" opacity="1" fill="#dd6561" fill-opacity="1"></use><g><use xlink:href="#a2hk89d92T" opacity="1" fill-opacity="0" stroke="#3b509c" stroke-width="0" stroke-opacity="1"></use></g></g><g><use xlink:href="#b2jhkhs3YZ" opacity="1" fill="#dd6561" fill-opacity="1"></use><g><use xlink:href="#b2jhkhs3YZ" opacity="1" fill-opacity="0" stroke="#3b509c" stroke-width="0" stroke-opacity="1"></use></g></g><g><use xlink:href="#a1RVDpRqPW" opacity="1" fill="#dd6561" fill-opacity="1"></use><g><use xlink:href="#a1RVDpRqPW" opacity="1" fill-opacity="0" stroke="#3b509c" stroke-width="0" stroke-opacity="1"></use></g></g><g><use xlink:href="#bONDrmuou" opacity="1" fill="#dd6561" fill-opacity="1"></use><g><use xlink:href="#bONDrmuou" opacity="1" fill-opacity="0" stroke="#3b509c" stroke-width="0" stroke-opacity="1"></use></g></g><g><use xlink:href="#abmOp1RsX" opacity="1" fill="#dd6561" fill-opacity="1"></use><g><use xlink:href="#abmOp1RsX" opacity="1" fill-opacity="0" stroke="#3b509c" stroke-width="0" stroke-opacity="1"></use></g></g><g><use xlink:href="#aVFOKCPQ7" opacity="1" fill="#dd6561" fill-opacity="1"></use><g><use xlink:href="#aVFOKCPQ7" opacity="1" fill-opacity="0" stroke="#3b509c" stroke-width="0" stroke-opacity="1"></use></g></g><g><use xlink:href="#g27lOIb2v" opacity="1" fill="#dd6561" fill-opacity="1"></use><g><use xlink:href="#g27lOIb2v" opacity="1" fill-opacity="0" stroke="#3b509c" stroke-width="0" stroke-opacity="1"></use></g></g><g><use xlink:href="#c2OTBMsz8d" opacity="1" fill="#dd6561" fill-opacity="1"></use><g><use xlink:href="#c2OTBMsz8d" opacity="1" fill-opacity="0" stroke="#3b509c" stroke-width="0" stroke-opacity="1"></use></g></g><g><use xlink:href="#a6sL9T2R1Y" opacity="1" fill="#dd6561" fill-opacity="1"></use><g><use xlink:href="#a6sL9T2R1Y" opacity="1" fill-opacity="0" stroke="#3b509c" stroke-width="0" stroke-opacity="1"></use></g></g><g><use xlink:href="#a31MneiXoZ" opacity="1" fill="#dd6561" fill-opacity="1"></use><g><use xlink:href="#a31MneiXoZ" opacity="1" fill-opacity="0" stroke="#3b509c" stroke-width="0" stroke-opacity="1"></use></g></g><g><use xlink:href="#aFzbsV9Xy" opacity="1" fill="#dd6561" fill-opacity="1"></use><g><use xlink:href="#aFzbsV9Xy" opacity="1" fill-opacity="0" stroke="#3b509c" stroke-width="0" stroke-opacity="1"></use></g></g><g><use xlink:href="#lAphmPoh" opacity="1" fill="#dd6561" fill-opacity="1"></use><g><use xlink:href="#lAphmPoh" opacity="1" fill-opacity="0" stroke="#3b509c" stroke-width="0" stroke-opacity="1"></use></g></g></g></g></svg>